<?xml version="1.0" encoding="UTF-8" standalone="no"?>
<svg width="641px" height="138px" viewBox="0 0 641 138" version="1.1" xmlns="http://www.w3.org/2000/svg" xmlns:xlink="http://www.w3.org/1999/xlink">
    <!-- Generator: Sketch 47.1 (45422) - http://www.bohemiancoding.com/sketch -->
    <title>logotype</title>
    <desc>Created with Sketch.</desc>
    <defs></defs>
    <g id="Page-1" stroke="none" stroke-width="1" fill="none" fill-rule="evenodd">
        <g id="logotype" fill-rule="nonzero" fill="#FAFAFA">
            <path d="M330.46,46.89 L349.46,46.89 C350.203638,46.8813558 350.895427,46.5074159 351.31,45.89 L365.31,25.89 C365.789679,25.1999867 365.846887,24.3007989 365.458523,23.5555586 C365.070158,22.8103182 364.300361,22.3421054 363.46,22.34 L344.46,22.34 C343.716362,22.3486442 343.024573,22.7225841 342.61,23.34 L328.61,43.34 C328.130321,44.0300133 328.073113,44.9292011 328.461477,45.6744414 C328.849842,46.4196818 329.619639,46.8878946 330.46,46.89 Z" id="Shape"></path>
            <path d="M441.67,93.21 L471.79,76.58 C472.151824,76.3823017 472.557689,76.2791155 472.97,76.28 L480.86,76.28 C482.213098,76.2799998 483.31,75.1830975 483.31,73.83 C483.31,72.4769025 482.213098,71.3800002 480.86,71.38 L480.47,71.38 C479.559451,71.3760675 478.726195,70.8674814 478.306438,70.0594479 C477.88668,69.2514144 477.949673,68.2772446 478.47,67.53 L499,38.14 C499.46681,37.5041369 500.211224,37.1319302 501,37.14 L508.25,37.14 C509.603098,37.1399998 510.7,36.0430975 510.7,34.69 C510.7,33.3369025 509.603098,32.2400002 508.25,32.24 L507.86,32.24 C506.949451,32.2360675 506.116195,31.7274814 505.696438,30.9194479 C505.27668,30.1114144 505.339673,29.1372446 505.86,28.39 L517.86,11.25 C518.32681,10.6141369 519.071224,10.2419302 519.86,10.25 L527.11,10.25 C527.898776,10.2580698 528.64319,9.88586307 529.11,9.25 L532.54,4.35 C533.060327,3.60275542 533.12332,2.62858556 532.703562,1.82055207 C532.283805,1.01251859 531.450549,0.503932499 530.54,0.5 L502.24,0.5 C501.451224,0.4919302 500.70681,0.864136928 500.24,1.5 L438.45,89.75 C437.868665,90.6888392 437.987221,91.9005449 438.739505,92.7089 C439.491789,93.5172551 440.691863,93.7224617 441.67,93.21 L441.67,93.21 Z" id="Shape"></path>
            <path d="M604.12,51.79 L583.32,51.79 C582.82697,51.7881022 582.364062,52.0270221 582.08,52.43 L544.76,105.73 C544.434474,106.191782 544.393972,106.796658 544.655028,107.297717 C544.916083,107.798775 545.435018,108.112181 546,108.11 L559.16,108.11 C559.726669,108.1089 560.246253,108.425161 560.505561,108.929021 C560.76487,109.432881 560.720246,110.039508 560.39,110.5 L542.73,135.11 C542.328176,135.731562 542.436099,136.552753 542.984877,137.049385 C543.533656,137.546018 544.361511,137.571684 544.94,137.11 L596.87,92.39 C597.355119,91.9773298 597.529152,91.3046446 597.305031,90.7084845 C597.080911,90.1123244 596.506831,89.7208846 595.87,89.73 L583.37,89.59 C582.808613,89.5847453 582.296487,89.2684723 582.040391,88.768875 C581.784295,88.2692777 581.826513,87.6688453 582.15,87.21 L589.62,76.55 L602.29,76.55 C603.643098,76.5499998 604.74,75.4530975 604.74,74.1 C604.74,72.7469025 603.643098,71.6500002 602.29,71.65 L593.05,71.65 L605.32,54.13 C605.619814,53.6753012 605.65153,53.0943801 605.402999,52.6097443 C605.154467,52.1251085 604.664207,51.8118673 604.12,51.79 Z" id="Shape"></path>
            <path d="M507.55,103.21 L430.27,103.21 C428.916902,103.21 427.82,104.306902 427.82,105.66 C427.82,107.013098 428.916902,108.11 430.27,108.11 L507.55,108.11 C508.338776,108.11807 509.08319,107.745863 509.55,107.11 L509.55,107.11 C510.099323,106.361947 510.178807,105.367719 509.755307,104.541894 C509.331807,103.716069 508.478034,103.200434 507.55,103.21 L507.55,103.21 Z" id="Shape"></path>
            <path d="M638.08,0.37 L619.38,0.37 C618.609192,0.368020447 617.885571,0.741020814 617.44,1.37 L613.9,6.43 C613.392875,7.15375439 613.33056,8.09954915 613.738342,8.88358366 C614.146124,9.66761817 614.95626,10.1596446 615.84,10.16 L634.54,10.16 C635.310808,10.1619796 636.034429,9.78897919 636.48,9.16 L640,4.1 C640.505116,3.37918612 640.569162,2.43781311 640.166329,1.65522733 C639.763497,0.872641554 638.960144,0.377757778 638.08,0.37 L638.08,0.37 Z" id="Shape"></path>
            <path d="M188.51,46.89 L207,46.89 C207.788776,46.8980698 208.53319,46.5258631 209,45.89 L228.11,18.59 C228.57681,17.9541369 229.321224,17.5819302 230.11,17.59 L253.52,17.59 C254.430549,17.5939325 255.263805,18.1025186 255.683562,18.9105521 C256.10332,19.7185856 256.040327,20.6927554 255.52,21.44 L254.14,23.44 C253.635437,24.3152449 253.71985,25.4104545 254.352576,26.1980432 C254.985301,26.9856318 256.036585,27.3040861 257,27 L282.29,17.63 C282.562224,17.5300916 282.850022,17.4793036 283.14,17.48 L307.38,17.48 C308.290549,17.4839325 309.123805,17.9925186 309.543562,18.8005521 C309.96332,19.6085856 309.900327,20.5827554 309.38,21.33 L295.71,41 C295.24319,41.6358631 294.498776,42.0080698 293.71,42 L287.62,42 C286.744699,41.9999999 285.935888,42.4669672 285.498238,43.2249999 C285.060587,43.9830326 285.060587,44.9169674 285.498238,45.6750001 C285.935888,46.4330328 286.744699,46.9000001 287.62,46.9 L314.76,46.9 C315.548776,46.9080698 316.29319,46.5358631 316.76,45.9 L337.34,16.52 C337.860327,15.7727554 337.92332,14.7985856 337.503562,13.9905521 C337.083805,13.1825186 336.250549,12.6739325 335.34,12.67 L290.88,12.67 C289.969451,12.6660675 289.136195,12.1574814 288.716438,11.3494479 C288.29668,10.5414144 288.359673,9.56724458 288.88,8.82 L292.06,4.28 C292.580327,3.53275542 292.64332,2.55858556 292.223562,1.75055207 C291.803805,0.942518585 290.970549,0.433932499 290.06,0.43 L248.22,0.43 C246.866902,0.43 245.77,1.52690236 245.77,2.88 C245.77,4.23309764 246.866902,5.33 248.22,5.33 L262.13,5.33 C263.040549,5.3339325 263.873805,5.84251859 264.293562,6.65055207 C264.71332,7.45858556 264.650327,8.43275542 264.13,9.18 L262.42,11.63 C261.95319,12.2658631 261.208776,12.6380698 260.42,12.63 L209.09,12.63 C208.301224,12.6219302 207.55681,12.9941369 207.09,13.63 L186.51,43 C185.966587,43.7479509 185.890483,44.7381056 186.313213,45.5603149 C186.735942,46.3825242 187.585509,46.8967555 188.51,46.89 Z" id="Shape"></path>
            <path d="M46.2,46.89 L64.71,46.89 C65.4987765,46.8980698 66.2431899,46.5258631 66.71,45.89 L85.82,18.59 C86.2868101,17.9541369 87.0312235,17.5819302 87.82,17.59 L165.1,17.59 C166.010549,17.5939325 166.843805,18.1025186 167.263562,18.9105521 C167.68332,19.7185856 167.620327,20.6927554 167.1,21.44 L153.4,41 C152.93319,41.6358631 152.188776,42.0080698 151.4,42 L145.31,42 C144.434699,41.9999999 143.625888,42.4669672 143.188238,43.2249999 C142.750587,43.9830326 142.750587,44.9169674 143.188238,45.6750001 C143.625888,46.4330328 144.434699,46.9000001 145.31,46.9 L172.45,46.9 C173.238776,46.9080698 173.98319,46.5358631 174.45,45.9 L195,16.47 C195.520327,15.7227554 195.58332,14.7485856 195.163562,13.9405521 C194.743805,13.1325186 193.910549,12.6239325 193,12.62 L148.57,12.62 C147.659451,12.6160675 146.826195,12.1074814 146.406438,11.2994479 C145.98668,10.4914144 146.049673,9.51724458 146.57,8.77 L149.75,4.23 C150.270327,3.48275542 150.33332,2.50858556 149.913562,1.70055207 C149.493805,0.892518585 148.660549,0.383932499 147.75,0.38 L105.91,0.38 C104.556902,0.38 103.46,1.47690236 103.46,2.83 C103.46,4.18309764 104.556902,5.28 105.91,5.28 L119.82,5.28 C120.730549,5.2839325 121.563805,5.79251859 121.983562,6.60055207 C122.40332,7.40858556 122.340327,8.38275542 121.82,9.13 L120.11,11.58 C119.64319,12.2158631 118.898776,12.5880698 118.11,12.58 L66.78,12.58 C65.9912235,12.5719302 65.2468101,12.9441369 64.78,13.58 L44.2,43 C43.6565867,43.7479509 43.5804828,44.7381056 44.0032125,45.5603149 C44.4259422,46.3825242 45.2755094,46.8967555 46.2,46.89 Z" id="Shape"></path>
            <path d="M339.67,51.79 L324.73,51.79 C323.454831,51.7915537 322.260531,52.414829 321.53,53.46 L287.53,101.96 C286.695528,103.153874 286.593868,104.712634 287.266204,106.00478 C287.93854,107.296926 289.273403,108.108227 290.73,108.11 L305.67,108.11 C306.945169,108.108446 308.139469,107.485171 308.87,106.44 L342.87,57.94 C343.704472,56.7461261 343.806132,55.1873662 343.133796,53.8952201 C342.46146,52.6030739 341.126597,51.7917733 339.67,51.79 L339.67,51.79 Z" id="Shape"></path>
            <path d="M360.21,46.89 L378.72,46.89 C379.508776,46.8980698 380.25319,46.5258631 380.72,45.89 L398.58,20.38 C399.04681,19.7441369 399.791224,19.3719302 400.58,19.38 L476.4,19.38 C477.753098,19.38 478.85,18.2830976 478.85,16.93 C478.85,15.5769024 477.753098,14.48 476.4,14.48 L407.4,14.48 C406.489451,14.4760675 405.656195,13.9674814 405.236438,13.1594479 C404.81668,12.3514144 404.879673,11.3772446 405.4,10.63 L408.4,6.39 C408.86681,5.75413693 409.611224,5.3819302 410.4,5.39 L431.17,5.39 C431.958776,5.3980698 432.70319,5.02586307 433.17,4.39 L433.17,4.39 C433.690327,3.64275542 433.75332,2.66858556 433.333562,1.86055207 C432.913805,1.05251859 432.080549,0.543932499 431.17,0.54 L389.36,0.54 C388.571224,0.5319302 387.82681,0.904136928 387.36,1.54 L358.2,43 C357.655473,43.7494086 357.580183,44.7418542 358.005424,45.5648324 C358.430664,46.3878106 359.283711,46.9005758 360.21,46.89 L360.21,46.89 Z" id="Shape"></path>
            <path d="M350.16,17.51 L370.24,17.51 C370.829262,17.5095491 371.381419,17.2222782 371.72,16.74 L381.19,3.21 C381.572226,2.6576964 381.617183,1.93914811 381.30678,1.34350902 C380.996377,0.74786992 380.38166,0.373095417 379.71,0.37 L352.71,0.37 C352.120738,0.370450854 351.568581,0.657721756 351.23,1.14 L350.33,2.43 C349.947774,2.9823036 349.902817,3.70085189 350.21322,4.29649098 C350.523623,4.89213008 351.13834,5.26690458 351.81,5.27 L351.81,5.27 C352.48166,5.27309542 353.096377,5.64786992 353.40678,6.24350902 C353.717183,6.83914811 353.672226,7.5576964 353.29,8.11 L348.7,14.67 C348.319704,15.2193565 348.27298,15.9335416 348.57846,16.5277635 C348.88394,17.1219854 349.491936,17.4995892 350.16,17.51 L350.16,17.51 Z" id="Shape"></path>
            <path d="M123.45,56.69 L165.57,56.69 C166.923098,56.6899998 168.02,55.5930975 168.02,54.24 C168.02,52.8869025 166.923098,51.7900002 165.57,51.79 L123.45,51.79 C122.096902,51.79 121,52.8869024 121,54.24 C121,55.5930976 122.096902,56.69 123.45,56.69 L123.45,56.69 Z" id="Shape"></path>
            <path d="M125.08,39.5 L125.15,39.39 L148.29,39.39 C149.200833,39.4482802 150.068557,38.9954304 150.541636,38.2149112 C151.014715,37.434392 151.014715,36.455608 150.541636,35.6750888 C150.068557,34.8945696 149.200833,34.4417198 148.29,34.5 L81.98,34.6 C81.1912235,34.5919302 80.4468101,34.9641369 79.98,35.6 L79.98,35.6 C79.459673,36.3472446 79.3966801,37.3214144 79.8164377,38.1294479 C80.2361954,38.9374814 81.0694512,39.4460675 81.98,39.45 L95.9,39.45 C96.8105488,39.4539325 97.6438046,39.9625186 98.0635623,40.7705521 C98.4833199,41.5785856 98.420327,42.5527554 97.9,43.3 L92.72,50.7 C92.2531899,51.3358631 91.5087765,51.7080698 90.72,51.7 L40.15,51.7 C39.3612235,51.6919302 38.6168101,52.0641369 38.15,52.7 L38.15,52.7 C37.629673,53.4472446 37.5666801,54.4214144 37.9864377,55.2294479 C38.4061954,56.0374814 39.2394512,56.5460675 40.15,56.55 L88.55,56.55 L88.43,56.71 L56.73,101.98 C56.2642912,102.617168 55.5191593,102.989734 54.73,102.98 L21.55,102.98 C20.7612235,102.97193 20.0168101,103.344137 19.55,103.98 L19.55,103.98 C19.029673,104.727245 18.9666801,105.701414 19.3864377,106.509448 C19.8061954,107.317481 20.6394512,107.826068 21.55,107.83 L75.8,107.83 C76.5891593,107.839734 77.3342912,107.467168 77.8,106.83 L125.08,39.31 L125.08,39.5 Z" id="Shape"></path>
            <path d="M258.46,72.46 L248.33,72.34 C247.565254,72.3554146 246.858693,71.9332985 246.509829,71.2525877 C246.160965,70.5718769 246.230904,69.7518042 246.69,69.14 L274.77,29 C275.346951,28.2805799 275.357202,27.2599325 274.794817,26.5290692 C274.232432,25.7982059 273.243224,25.5466226 272.4,25.92 L246.2,35.58 C245.796477,35.71409 245.446192,35.9733005 245.2,36.32 L234.38,51.8 L234.18,51.9 L181.44,51.8 C180.773094,51.7934135 180.146788,52.1196931 179.77,52.67 L144.37,103.22 L123.86,103.22 C122.506902,103.22 121.41,104.316902 121.41,105.67 C121.41,107.023098 122.506902,108.12 123.86,108.12 L166.86,108.12 C166.96987,108.127571 167.08013,108.127571 167.19,108.12 L208.8,108 C209.463376,108.003251 210.085196,107.677357 210.46,107.13 L211.04,106.3 C211.50286,105.683864 211.570554,104.856607 211.214016,104.17342 C210.857478,103.490233 210.140141,103.072664 209.37,103.1 L172.84,103.1 C172.069859,103.127336 171.352522,102.709767 170.995984,102.02658 C170.639446,101.343393 170.70714,100.516136 171.17,99.9 L184.27,81.19 C184.646788,80.6396931 185.273094,80.3134135 185.94,80.32 L208.31,80.32 C208.976906,80.3265865 209.603212,80.0003069 209.98,79.45 L210.56,78.62 C211.02286,78.0038636 211.090554,77.1766068 210.734016,76.4934199 C210.377478,75.8102331 209.660141,75.3926641 208.89,75.42 L192.22,75.42 C191.449859,75.4473359 190.732522,75.0297669 190.375984,74.3465801 C190.019446,73.6633932 190.08714,72.8361364 190.55,72.22 L200.75,57.66 C201.126788,57.1096931 201.753094,56.7834135 202.42,56.79 L230.75,56.79 L231.04,56.56 L209.28,87.56 C208.81714,88.1761364 208.749446,89.0033932 209.105984,89.6865801 C209.462522,90.3697669 210.179859,90.7873359 210.95,90.76 L222.08,90.76 C222.853818,90.7344356 223.572878,91.1577932 223.92596,91.8468373 C224.279042,92.5358815 224.202709,93.3668159 223.73,93.98 L209.22,114.21 C208.466131,115.038427 208.526573,116.321131 209.355,117.075 C210.183427,117.828869 211.466131,117.768427 212.22,116.94 L259.78,75.94 C260.388181,75.3873364 260.596401,74.5188965 260.304954,73.7505348 C260.013506,72.982173 259.281715,72.4702892 258.46,72.46 Z" id="Shape"></path>
            <path d="M309.38,51.8 L264.44,51.9 C263.893395,51.9028342 263.382342,52.1714169 263.07,52.62 L262,54.15 C261.643347,54.6621859 261.600028,55.3298728 261.887508,55.8838498 C262.174989,56.4378269 262.74588,56.7867756 263.37,56.79 L281.37,56.79 C281.99412,56.7932244 282.565011,57.1421731 282.852492,57.6961502 C283.139972,58.2501272 283.096653,58.9178141 282.74,59.43 L272.04,74.71 C271.727658,75.1585831 271.216605,75.4271658 270.67,75.43 L266.67,75.43 C266.269404,75.4323382 265.882829,75.5777471 265.58,75.84 L263.79,77.38 C263.261042,77.8380345 263.07136,78.5759594 263.313872,79.2322983 C263.556383,79.8886372 264.180303,80.3259433 264.88,80.33 L264.88,80.33 C265.50412,80.3332244 266.075011,80.6821731 266.362492,81.2361502 C266.649972,81.7901272 266.606653,82.4578141 266.25,82.97 L252.65,102.4 C252.337658,102.848583 251.826605,103.117166 251.28,103.12 L233.7,103.12 C233.299404,103.122338 232.912829,103.267747 232.61,103.53 L230.76,105.12 C230.231042,105.578035 230.04136,106.315959 230.283872,106.972298 C230.526383,107.628637 231.150303,108.065943 231.85,108.07 L272.3,108.13 C272.850141,108.130427 273.365634,107.861474 273.68,107.41 L310.76,54.41 C311.100916,53.8972061 311.133971,53.2389937 310.846144,52.6946252 C310.558317,52.1502568 309.995737,51.806977 309.38,51.8 L309.38,51.8 Z" id="Shape"></path>
            <path d="M628.9,34.5 L589.75,34.5 L599.66,20.35 C600.12681,19.7141369 600.871224,19.3419302 601.66,19.35 L628.5,19.35 C629.853098,19.35 630.95,18.2530976 630.95,16.9 C630.95,15.5469024 629.853098,14.45 628.5,14.45 L608.5,14.45 C607.589451,14.4460675 606.756195,13.9374814 606.336438,13.1294479 C605.91668,12.3214144 605.979673,11.3472446 606.5,10.6 L610.93,4.27 C611.450327,3.52275542 611.51332,2.54858556 611.093562,1.74055207 C610.673805,0.932518585 609.840549,0.423932499 608.93,0.42 L590.44,0.42 C589.651224,0.4119302 588.90681,0.784136928 588.44,1.42 L580.08,13.37 C579.61319,14.0058631 578.868776,14.3780698 578.08,14.37 L551.23,14.37 C550.441224,14.3619302 549.69681,14.7341369 549.23,15.37 L549.23,15.37 C548.709673,16.1172446 548.64668,17.0914144 549.066438,17.8994479 C549.486195,18.7074814 550.319451,19.2160675 551.23,19.22 L571.23,19.22 C572.140549,19.2239325 572.973805,19.7325186 573.393562,20.5405521 C573.81332,21.3485856 573.750327,22.3227554 573.23,23.07 L553.91,50.66 C553.44319,51.2958631 552.698776,51.6680698 551.91,51.66 L548.91,51.66 L560.33,35.35 C560.774743,34.7169952 560.829392,33.8888205 560.471685,33.2028638 C560.113977,32.516907 559.403619,32.0876629 558.63,32.09 L539.21,32.09 C538.53359,32.0879609 537.898853,32.4165311 537.51,32.97 L524.43,51.65 L523.57,51.65 C522.659451,51.6460675 521.826195,51.1374814 521.406438,50.3294479 C520.98668,49.5214144 521.049673,48.5472446 521.57,47.8 L552.18,4.08 C552.700327,3.33275542 552.76332,2.35858556 552.343562,1.55055207 C551.923805,0.742518585 551.090549,0.233932499 550.18,0.23 L541.47,0.23 C540.681224,0.2219302 539.93681,0.594136928 539.47,1.23 L504.93,50.56 C504.46319,51.1958631 503.718776,51.5680698 502.93,51.56 L495.68,51.56 C494.326902,51.5600002 493.23,52.6569025 493.23,54.01 C493.23,55.3630975 494.326902,56.4599998 495.68,56.46 L521,56.46 L499,87.91 C498.14672,88.7108129 498.104187,90.0517201 498.905,90.905 C499.705813,91.7582799 501.04672,91.8008129 501.9,91 L540.46,62.89 C541.393608,62.2086427 542.207955,61.3774009 542.87,60.43 L545.46,56.72 C546.277958,56.8726586 546.962524,57.4300343 547.277814,58.2000683 C547.593104,58.9701023 547.496014,59.8475261 547.02,60.53 L516.41,104.25 C515.889673,104.997245 515.82668,105.971414 516.246438,106.779448 C516.666195,107.587481 517.499451,108.096068 518.41,108.1 L536.92,108.1 C537.708776,108.10807 538.45319,107.735863 538.92,107.1 L586.31,39.43 L628.9,39.43 C629.775301,39.4300001 630.584112,38.9630328 631.021762,38.2050001 C631.459413,37.4469674 631.459413,36.5130326 631.021762,35.7549999 C630.584112,34.9969672 629.775301,34.5299999 628.9,34.53 L628.9,34.5 Z" id="Shape"></path>
            <path d="M620.95,71.69 L612.51,71.69 C611.156902,71.69 610.06,72.7869024 610.06,74.14 C610.06,75.4930976 611.156902,76.59 612.51,76.59 L620.95,76.59 C622.303098,76.59 623.4,75.4930976 623.4,74.14 C623.4,72.7869024 622.303098,71.69 620.95,71.69 L620.95,71.69 Z" id="Shape"></path>
            <path d="M11.85,103.17 L3.41,103.17 C2.05690252,103.17 0.960000413,104.266903 0.960000413,105.62 C0.960000413,106.973097 2.05690252,108.07 3.41,108.07 L11.85,108.07 C13.2030976,108.07 14.3,106.973098 14.3,105.62 C14.3,104.266902 13.2030976,103.17 11.85,103.17 L11.85,103.17 Z" id="Shape"></path>
            <path d="M74.77,5.27 L96.17,5.27 C97.5230976,5.27 98.62,4.17309764 98.62,2.82 C98.62,1.46690236 97.5230976,0.37 96.17,0.37 L74.77,0.37 C73.9812235,0.3619302 73.2368101,0.734136928 72.77,1.37 L72.77,1.37 C72.2206768,2.11805276 72.1411935,3.11228109 72.5646934,3.93810594 C72.9881933,4.7639308 73.8419659,5.27956638 74.77,5.27 L74.77,5.27 Z" id="Shape"></path>
            <path d="M473.76,93.42 L466.51,93.42 C465.156902,93.42 464.06,94.5169024 464.06,95.87 C464.06,97.2230976 465.156902,98.32 466.51,98.32 L485,98.32 C485.788776,98.3280698 486.53319,97.9558631 487,97.32 L509.26,65.54 C509.780327,64.7927554 509.84332,63.8185856 509.423562,63.0105521 C509.003805,62.2025186 508.170549,61.6939325 507.26,61.69 L498.55,61.69 C497.761224,61.6819302 497.01681,62.0541369 496.55,62.69 L475.76,92.39 C475.299685,93.037205 474.554206,93.4211269 473.76,93.42 Z" id="Shape"></path>
            <path d="M471.19,28.55 C471.693316,27.8328555 471.755893,26.8952649 471.352345,26.1175938 C470.948797,25.3399228 470.14614,24.8513185 469.27,24.85 L401.54,24.85 C400.775432,24.8511518 400.059219,25.2241795 399.62,25.85 L399.48,26.05 C398.976684,26.7671445 398.914107,27.7047351 399.317655,28.4824062 C399.721203,29.2600772 400.52386,29.7486815 401.4,29.75 L407.94,29.75 C408.81614,29.7513185 409.618797,30.2399228 410.022345,31.0175938 C410.425893,31.7952649 410.363316,32.7328555 409.86,33.45 L403,43.2 C402.496684,43.9171445 402.434107,44.8547351 402.837655,45.6324062 C403.241203,46.4100772 404.04386,46.8986815 404.92,46.9 C405.79614,46.9013185 406.598797,47.3899228 407.002345,48.1675938 C407.405893,48.9452649 407.343316,49.8828555 406.84,50.6 L406.7,50.8 C406.260781,51.4258205 405.544568,51.7988482 404.78,51.8 L353.3,51.8 C352.535432,51.8011518 351.819219,52.1741795 351.38,52.8 L328.38,85.59 C327.727745,86.5412438 327.862236,87.8252404 328.697448,88.6206798 C329.532659,89.4161192 330.821686,89.4878545 331.74,88.79 L372.46,57.19 C372.872404,56.8715427 373.378951,56.699176 373.9,56.7 L389.05,56.7 C389.92614,56.7013185 390.728797,57.1899228 391.132345,57.9675938 C391.535893,58.7452649 391.473316,59.6828555 390.97,60.4 L368.54,92.4 C368.100781,93.0258205 367.384568,93.3988482 366.62,93.4 L353.53,93.4 C352.765432,93.4011518 352.049219,93.7741795 351.61,94.4 L351.47,94.6 C350.966684,95.3171445 350.904107,96.2547351 351.307655,97.0324062 C351.711203,97.8100772 352.51386,98.2986815 353.39,98.3 L401.53,98.3 C402.294568,98.2988482 403.010781,97.9258205 403.45,97.3 L403.59,97.1 C404.093316,96.3828555 404.155893,95.4452649 403.752345,94.6675938 C403.348797,93.8899228 402.54614,93.4013185 401.67,93.4 L396,93.4 C395.12386,93.3986815 394.321203,92.9100772 393.917655,92.1324062 C393.514107,91.3547351 393.576684,90.4171445 394.08,89.7 L416.51,57.7 C416.949219,57.0741795 417.665432,56.7011518 418.43,56.7 L430.68,56.7 C431.444568,56.6988482 432.160781,56.3258205 432.6,55.7 L432.74,55.5 C433.243316,54.7828555 433.305893,53.8452649 432.902345,53.0675938 C432.498797,52.2899228 431.69614,51.8013185 430.82,51.8 L425.15,51.8 C424.27386,51.7986815 423.471203,51.3100772 423.067655,50.5324062 C422.664107,49.7547351 422.726684,48.8171445 423.23,48.1 L435.37,30.76 C435.809219,30.1341795 436.525432,29.7611518 437.29,29.76 L451.14,29.76 C452.01614,29.7613185 452.818797,30.2499228 453.222345,31.0275938 C453.625893,31.8052649 453.563316,32.7428555 453.06,33.46 L405,102.11 C404.560781,102.735821 403.844568,103.108848 403.08,103.11 L317.37,103.11 C316.605432,103.111152 315.889219,103.484179 315.45,104.11 L315.31,104.31 C314.806684,105.027145 314.744107,105.964735 315.147655,106.742406 C315.551203,107.520077 316.35386,108.008681 317.23,108.01 L414.34,108.01 C415.104568,108.008848 415.820781,107.635821 416.26,107.01 L418.99,103.11 L418.99,103.11 L471.19,28.55 Z" id="Shape"></path>
            <path d="M185.36,135.3 C185.303464,135.302905 185.248345,135.281715 185.208315,135.241685 C185.168285,135.201655 185.147095,135.146536 185.15,135.09 L185.15,123.93 C185.157501,123.893733 185.146249,123.856126 185.120062,123.829938 C185.093874,123.803751 185.056267,123.792499 185.02,123.8 L181.42,123.8 C181.363464,123.802905 181.308345,123.781715 181.268315,123.741685 C181.228285,123.701655 181.207095,123.646536 181.21,123.59 L181.21,121.27 C181.207095,121.213464 181.228285,121.158345 181.268315,121.118315 C181.308345,121.078285 181.363464,121.057095 181.42,121.06 L192,121.06 C192.056536,121.057095 192.111655,121.078285 192.151685,121.118315 C192.191715,121.158345 192.212905,121.213464 192.21,121.27 L192.21,123.59 C192.212905,123.646536 192.191715,123.701655 192.151685,123.741685 C192.111655,123.781715 192.056536,123.802905 192,123.8 L188.4,123.8 C188.363733,123.792499 188.326126,123.803751 188.299938,123.829938 C188.273751,123.856126 188.262499,123.893733 188.27,123.93 L188.27,135.09 C188.272905,135.146536 188.251715,135.201655 188.211685,135.241685 C188.171655,135.281715 188.116536,135.302905 188.06,135.3 L185.36,135.3 Z" id="Shape"></path>
            <path d="M197.45,121.27 C197.447095,121.213464 197.468285,121.158345 197.508315,121.118315 C197.548345,121.078285 197.603464,121.057095 197.66,121.06 L200.32,121.06 C200.376536,121.057095 200.431655,121.078285 200.471685,121.118315 C200.511715,121.158345 200.532905,121.213464 200.53,121.27 L200.53,126.61 C200.522499,126.646267 200.533751,126.683874 200.559938,126.710062 C200.586126,126.736249 200.623733,126.747501 200.66,126.74 L205.31,126.74 C205.346267,126.747501 205.383874,126.736249 205.410062,126.710062 C205.436249,126.683874 205.447501,126.646267 205.44,126.61 L205.44,121.27 C205.437095,121.213464 205.458285,121.158345 205.498315,121.118315 C205.538345,121.078285 205.593464,121.057095 205.65,121.06 L208.31,121.06 C208.366536,121.057095 208.421655,121.078285 208.461685,121.118315 C208.501715,121.158345 208.522905,121.213464 208.52,121.27 L208.52,135.09 C208.522905,135.146536 208.501715,135.201655 208.461685,135.241685 C208.421655,135.281715 208.366536,135.302905 208.31,135.3 L205.65,135.3 C205.593464,135.302905 205.538345,135.281715 205.498315,135.241685 C205.458285,135.201655 205.437095,135.146536 205.44,135.09 L205.44,129.6 C205.447501,129.563733 205.436249,129.526126 205.410062,129.499938 C205.383874,129.473751 205.346267,129.462499 205.31,129.47 L200.66,129.47 C200.623733,129.462499 200.586126,129.473751 200.559938,129.499938 C200.533751,129.526126 200.522499,129.563733 200.53,129.6 L200.53,135.09 C200.532905,135.146536 200.511715,135.201655 200.471685,135.241685 C200.431655,135.281715 200.376536,135.302905 200.32,135.3 L197.66,135.3 C197.603464,135.302905 197.548345,135.281715 197.508315,135.241685 C197.468285,135.201655 197.447095,135.146536 197.45,135.09 L197.45,121.27 Z" id="Shape"></path>
            <path d="M214.67,121.27 C214.667095,121.213464 214.688285,121.158345 214.728315,121.118315 C214.768345,121.078285 214.823464,121.057095 214.88,121.06 L224,121.06 C224.056536,121.057095 224.111655,121.078285 224.151685,121.118315 C224.191715,121.158345 224.212905,121.213464 224.21,121.27 L224.21,123.51 C224.212905,123.566536 224.191715,123.621655 224.151685,123.661685 C224.111655,123.701715 224.056536,123.722905 224,123.72 L217.87,123.72 C217.833733,123.712499 217.796126,123.723751 217.769938,123.749938 C217.743751,123.776126 217.732499,123.813733 217.74,123.85 L217.74,126.68 C217.732499,126.716267 217.743751,126.753874 217.769938,126.780062 C217.796126,126.806249 217.833733,126.817501 217.87,126.81 L223,126.81 C223.056536,126.807095 223.111655,126.828285 223.151685,126.868315 C223.191715,126.908345 223.212905,126.963464 223.21,127.02 L223.21,129.24 C223.212905,129.296536 223.191715,129.351655 223.151685,129.391685 C223.111655,129.431715 223.056536,129.452905 223,129.45 L217.89,129.45 C217.853733,129.442499 217.816126,129.453751 217.789938,129.479938 C217.763751,129.506126 217.752499,129.543733 217.76,129.58 L217.76,132.58 C217.752499,132.616267 217.763751,132.653874 217.789938,132.680062 C217.816126,132.706249 217.853733,132.717501 217.89,132.71 L224,132.71 C224.056536,132.707095 224.111655,132.728285 224.151685,132.768315 C224.191715,132.808345 224.212905,132.863464 224.21,132.92 L224.21,135.16 C224.212905,135.216536 224.191715,135.271655 224.151685,135.311685 C224.111655,135.351715 224.056536,135.372905 224,135.37 L214.87,135.37 C214.813464,135.372905 214.758345,135.351715 214.718315,135.311685 C214.678285,135.271655 214.657095,135.216536 214.66,135.16 L214.67,121.27 Z" id="Shape"></path>
            <path d="M237.77,133.58 C237.673489,133.479405 237.673489,133.320595 237.77,133.22 L239.36,131.4 C239.399784,131.356477 239.456034,131.331686 239.515,131.331686 C239.573966,131.331686 239.630216,131.356477 239.67,131.4 C240.708002,132.303192 242.024894,132.822182 243.4,132.87 C244.89,132.87 245.72,132.18 245.72,131.17 C245.72,130.33 245.22,129.81 243.52,129.58 L242.77,129.48 C239.88,129.08 238.27,127.72 238.27,125.21 C238.27,122.7 240.27,120.86 243.27,120.86 C245.002115,120.819454 246.70058,121.342329 248.11,122.35 C248.24,122.43 248.26,122.52 248.11,122.66 L246.83,124.56 C246.766288,124.656356 246.636716,124.683164 246.54,124.62 C245.572441,123.929984 244.418233,123.549897 243.23,123.53 C241.97,123.53 241.33,124.18 241.33,125.08 C241.33,125.98 241.92,126.42 243.55,126.65 L244.3,126.75 C247.23,127.15 248.78,128.49 248.78,131.06 C248.78,133.63 246.88,135.54 243.19,135.54 C241.208571,135.547177 239.288542,134.852849 237.77,133.58 L237.77,133.58 Z" id="Shape"></path>
            <path d="M254.51,135.3 C254.453464,135.302905 254.398345,135.281715 254.358315,135.241685 C254.318285,135.201655 254.297095,135.146536 254.3,135.09 L254.3,121.27 C254.297095,121.213464 254.318285,121.158345 254.358315,121.118315 C254.398345,121.078285 254.453464,121.057095 254.51,121.06 L260,121.06 C263.1,121.06 265,122.92 265,125.64 C265,128.36 263.12,130.2 260,130.2 L257.47,130.2 C257.433733,130.192499 257.396126,130.203751 257.369938,130.229938 C257.343751,130.256126 257.332499,130.293733 257.34,130.33 L257.34,135.08 C257.342905,135.136536 257.321715,135.191655 257.281685,135.231685 C257.241655,135.271715 257.186536,135.292905 257.13,135.29 L254.51,135.3 Z M261.92,125.65 C261.940593,125.107024 261.723995,124.581941 261.326572,124.211397 C260.92915,123.840853 260.390208,123.661496 259.85,123.72 L257.51,123.72 C257.473733,123.712499 257.436126,123.723751 257.409938,123.749938 C257.383751,123.776126 257.372499,123.813733 257.38,123.85 L257.38,127.43 C257.372499,127.466267 257.383751,127.503874 257.409938,127.530062 C257.436126,127.556249 257.473733,127.567501 257.51,127.56 L259.85,127.56 C260.388129,127.624883 260.927642,127.450506 261.325998,127.08294 C261.724355,126.715375 261.941477,126.191601 261.92,125.65 L261.92,125.65 Z" id="Shape"></path>
            <path d="M272.45,121.27 C272.478528,121.144648 272.591483,121.056795 272.72,121.06 L275.36,121.06 C275.488517,121.056795 275.601472,121.144648 275.63,121.27 L280.44,135.09 C280.44,135.22 280.44,135.3 280.29,135.3 L277.57,135.3 C277.438702,135.312158 277.320536,135.22025 277.3,135.09 L276.48,132.6 L271.48,132.6 L270.68,135.09 C270.659464,135.22025 270.541298,135.312158 270.41,135.3 L267.67,135.3 C267.52,135.3 267.48,135.22 267.52,135.09 L272.45,121.27 Z M275.65,129.98 L274,125 L274,125 L272.39,130 L275.65,129.98 Z" id="Shape"></path>
            <path d="M284.85,128.18 C284.748396,126.883024 284.883942,125.578388 285.25,124.33 C285.903514,122.113955 288.016202,120.655491 290.32,120.83 C292.497794,120.678873 294.521882,121.958096 295.32,123.99 C295.351623,124.034349 295.358511,124.09174 295.338282,124.142313 C295.318053,124.192886 295.273485,124.229694 295.22,124.24 L292.94,125.24 C292.889273,125.27054 292.827621,125.277034 292.771644,125.257731 C292.715668,125.238429 292.671122,125.195316 292.65,125.14 C292.327734,124.168382 291.413587,123.517154 290.39,123.53 C289.393265,123.475114 288.496857,124.132759 288.25,125.1 C287.942965,127.125095 287.942965,129.184905 288.25,131.21 C288.496857,132.177241 289.393265,132.834886 290.39,132.78 C291.413587,132.792846 292.327734,132.141618 292.65,131.17 C292.671122,131.114684 292.715668,131.071571 292.771644,131.052269 C292.827621,131.032966 292.889273,131.03946 292.94,131.07 L295.22,132.07 C295.273485,132.080306 295.318053,132.117114 295.338282,132.167687 C295.358511,132.21826 295.351623,132.275651 295.32,132.32 C294.521882,134.351904 292.497794,135.631127 290.32,135.48 C288.016202,135.654509 285.903514,134.196045 285.25,131.98 C284.889964,130.74755 284.754475,129.460403 284.85,128.18 L284.85,128.18 Z" id="Shape"></path>
            <path d="M300.71,121.27 C300.707095,121.213464 300.728285,121.158345 300.768315,121.118315 C300.808345,121.078285 300.863464,121.057095 300.92,121.06 L310,121.06 C310.056536,121.057095 310.111655,121.078285 310.151685,121.118315 C310.191715,121.158345 310.212905,121.213464 310.21,121.27 L310.21,123.51 C310.212905,123.566536 310.191715,123.621655 310.151685,123.661685 C310.111655,123.701715 310.056536,123.722905 310,123.72 L303.87,123.72 C303.833733,123.712499 303.796126,123.723751 303.769938,123.749938 C303.743751,123.776126 303.732499,123.813733 303.74,123.85 L303.74,126.68 C303.732499,126.716267 303.743751,126.753874 303.769938,126.780062 C303.796126,126.806249 303.833733,126.817501 303.87,126.81 L309,126.81 C309.056536,126.807095 309.111655,126.828285 309.151685,126.868315 C309.191715,126.908345 309.212905,126.963464 309.21,127.02 L309.21,129.24 C309.212905,129.296536 309.191715,129.351655 309.151685,129.391685 C309.111655,129.431715 309.056536,129.452905 309,129.45 L303.89,129.45 C303.853733,129.442499 303.816126,129.453751 303.789938,129.479938 C303.763751,129.506126 303.752499,129.543733 303.76,129.58 L303.76,132.58 C303.752499,132.616267 303.763751,132.653874 303.789938,132.680062 C303.816126,132.706249 303.853733,132.717501 303.89,132.71 L310,132.71 C310.056536,132.707095 310.111655,132.728285 310.151685,132.768315 C310.191715,132.808345 310.212905,132.863464 310.21,132.92 L310.21,135.16 C310.212905,135.216536 310.191715,135.271655 310.151685,135.311685 C310.111655,135.351715 310.056536,135.372905 310,135.37 L300.87,135.37 C300.813464,135.372905 300.758345,135.351715 300.718315,135.311685 C300.678285,135.271655 300.657095,135.216536 300.66,135.16 L300.71,121.27 Z" id="Shape"></path>
            <path d="M324.71,135.3 C324.653464,135.302905 324.598345,135.281715 324.558315,135.241685 C324.518285,135.201655 324.497095,135.146536 324.5,135.09 L324.5,121.27 C324.497095,121.213464 324.518285,121.158345 324.558315,121.118315 C324.598345,121.078285 324.653464,121.057095 324.71,121.06 L330.24,121.06 C333.34,121.06 335.24,122.92 335.24,125.64 C335.24,128.36 333.36,130.2 330.24,130.2 L327.71,130.2 C327.673733,130.192499 327.636126,130.203751 327.609938,130.229938 C327.583751,130.256126 327.572499,130.293733 327.58,130.33 L327.58,135.08 C327.582905,135.136536 327.561715,135.191655 327.521685,135.231685 C327.481655,135.271715 327.426536,135.292905 327.37,135.29 L324.71,135.3 Z M332.12,125.65 C332.140593,125.107024 331.923995,124.581941 331.526572,124.211397 C331.12915,123.840853 330.590208,123.661496 330.05,123.72 L327.71,123.72 C327.673733,123.712499 327.636126,123.723751 327.609938,123.749938 C327.583751,123.776126 327.572499,123.813733 327.58,123.85 L327.58,127.43 C327.572499,127.466267 327.583751,127.503874 327.609938,127.530062 C327.636126,127.556249 327.673733,127.567501 327.71,127.56 L330.05,127.56 C330.588129,127.624883 331.127642,127.450506 331.525998,127.08294 C331.924355,126.715375 332.141477,126.191601 332.12,125.65 L332.12,125.65 Z" id="Shape"></path>
            <path d="M340.62,121.27 C340.617095,121.213464 340.638285,121.158345 340.678315,121.118315 C340.718345,121.078285 340.773464,121.057095 340.83,121.06 L343.49,121.06 C343.546536,121.057095 343.601655,121.078285 343.641685,121.118315 C343.681715,121.158345 343.702905,121.213464 343.7,121.27 L343.7,135.09 C343.702905,135.146536 343.681715,135.201655 343.641685,135.241685 C343.601655,135.281715 343.546536,135.302905 343.49,135.3 L340.83,135.3 C340.773464,135.302905 340.718345,135.281715 340.678315,135.241685 C340.638285,135.201655 340.617095,135.146536 340.62,135.09 L340.62,121.27 Z" id="Shape"></path>
            <path d="M357.7,135.3 C357.558175,135.319546 357.424451,135.228958 357.39,135.09 L354.94,129.88 L353,129.88 C352.963733,129.872499 352.926126,129.883751 352.899938,129.909938 C352.873751,129.936126 352.862499,129.973733 352.87,130.01 L352.87,135.1 C352.872905,135.156536 352.851715,135.211655 352.811685,135.251685 C352.771655,135.291715 352.716536,135.312905 352.66,135.31 L350,135.31 C349.943464,135.312905 349.888345,135.291715 349.848315,135.251685 C349.808285,135.211655 349.787095,135.156536 349.79,135.1 L349.79,121.27 C349.787095,121.213464 349.808285,121.158345 349.848315,121.118315 C349.888345,121.078285 349.943464,121.057095 350,121.06 L355.67,121.06 C358.58,121.06 360.51,122.88 360.51,125.48 C360.578324,127.209128 359.571606,128.800778 357.98,129.48 L360.78,135.09 C360.815769,135.141672 360.817976,135.209498 360.785643,135.263386 C360.75331,135.317274 360.692425,135.347245 360.63,135.34 L357.7,135.3 Z M357.47,125.48 C357.482064,124.979134 357.2764,124.497635 356.906202,124.160045 C356.536005,123.822456 356.037636,123.661934 355.54,123.72 L353,123.72 C352.963733,123.712499 352.926126,123.723751 352.899938,123.749938 C352.873751,123.776126 352.862499,123.813733 352.87,123.85 L352.87,127.14 C352.862499,127.176267 352.873751,127.213874 352.899938,127.240062 C352.926126,127.266249 352.963733,127.277501 353,127.27 L355.51,127.27 C356.017812,127.338615 356.529914,127.178578 356.908292,126.833018 C357.28667,126.487459 357.492387,125.991938 357.47,125.48 L357.47,125.48 Z" id="Shape"></path>
            <path d="M370.26,121.27 C370.288528,121.144648 370.401483,121.056795 370.53,121.06 L373.17,121.06 C373.298517,121.056795 373.411472,121.144648 373.44,121.27 L378.25,135.09 C378.25,135.22 378.25,135.3 378.1,135.3 L375.38,135.3 C375.248702,135.312158 375.130536,135.22025 375.11,135.09 L374.29,132.6 L369.29,132.6 L368.49,135.09 C368.469464,135.22025 368.351298,135.312158 368.22,135.3 L365.48,135.3 C365.33,135.3 365.29,135.22 365.33,135.09 L370.26,121.27 Z M373.46,129.98 L371.85,124.98 L371.79,124.98 L370.18,129.98 L373.46,129.98 Z" id="Shape"></path>
            <path d="M385.2,135.3 C385.143464,135.302905 385.088345,135.281715 385.048315,135.241685 C385.008285,135.201655 384.987095,135.146536 384.99,135.09 L384.99,123.93 C384.997501,123.893733 384.986249,123.856126 384.960062,123.829938 C384.933874,123.803751 384.896267,123.792499 384.86,123.8 L381.26,123.8 C381.203464,123.802905 381.148345,123.781715 381.108315,123.741685 C381.068285,123.701655 381.047095,123.646536 381.05,123.59 L381.05,121.27 C381.047095,121.213464 381.068285,121.158345 381.108315,121.118315 C381.148345,121.078285 381.203464,121.057095 381.26,121.06 L391.79,121.06 C391.846536,121.057095 391.901655,121.078285 391.941685,121.118315 C391.981715,121.158345 392.002905,121.213464 392,121.27 L392,123.59 C392.002905,123.646536 391.981715,123.701655 391.941685,123.741685 C391.901655,123.781715 391.846536,123.802905 391.79,123.8 L388.19,123.8 C388.153733,123.792499 388.116126,123.803751 388.089938,123.829938 C388.063751,123.856126 388.052499,123.893733 388.06,123.93 L388.06,135.09 C388.062905,135.146536 388.041715,135.201655 388.001685,135.241685 C387.961655,135.281715 387.906536,135.302905 387.85,135.3 L385.2,135.3 Z" id="Shape"></path>
            <path d="M397.28,121.27 C397.277095,121.213464 397.298285,121.158345 397.338315,121.118315 C397.378345,121.078285 397.433464,121.057095 397.49,121.06 L406.62,121.06 C406.676536,121.057095 406.731655,121.078285 406.771685,121.118315 C406.811715,121.158345 406.832905,121.213464 406.83,121.27 L406.83,123.51 C406.832905,123.566536 406.811715,123.621655 406.771685,123.661685 C406.731655,123.701715 406.676536,123.722905 406.62,123.72 L400.49,123.72 C400.453733,123.712499 400.416126,123.723751 400.389938,123.749938 C400.363751,123.776126 400.352499,123.813733 400.36,123.85 L400.36,126.68 C400.352499,126.716267 400.363751,126.753874 400.389938,126.780062 C400.416126,126.806249 400.453733,126.817501 400.49,126.81 L405.6,126.81 C405.656536,126.807095 405.711655,126.828285 405.751685,126.868315 C405.791715,126.908345 405.812905,126.963464 405.81,127.02 L405.81,129.24 C405.812905,129.296536 405.791715,129.351655 405.751685,129.391685 C405.711655,129.431715 405.656536,129.452905 405.6,129.45 L400.49,129.45 C400.453733,129.442499 400.416126,129.453751 400.389938,129.479938 C400.363751,129.506126 400.352499,129.543733 400.36,129.58 L400.36,132.58 C400.352499,132.616267 400.363751,132.653874 400.389938,132.680062 C400.416126,132.706249 400.453733,132.717501 400.49,132.71 L406.62,132.71 C406.676536,132.707095 406.731655,132.728285 406.771685,132.768315 C406.811715,132.808345 406.832905,132.863464 406.83,132.92 L406.83,135.16 C406.832905,135.216536 406.811715,135.271655 406.771685,135.311685 C406.731655,135.351715 406.676536,135.372905 406.62,135.37 L397.49,135.37 C397.433464,135.372905 397.378345,135.351715 397.338315,135.311685 C397.298285,135.271655 397.277095,135.216536 397.28,135.16 L397.28,121.27 Z" id="Shape"></path>
            <path d="M412.09,133.58 C411.993489,133.479405 411.993489,133.320595 412.09,133.22 L413.68,131.4 C413.719784,131.356477 413.776034,131.331686 413.835,131.331686 C413.893966,131.331686 413.950216,131.356477 413.99,131.4 C415.028002,132.303192 416.344894,132.822182 417.72,132.87 C419.21,132.87 420.04,132.18 420.04,131.17 C420.04,130.33 419.54,129.81 417.84,129.58 L417.09,129.48 C414.2,129.08 412.59,127.72 412.59,125.21 C412.59,122.7 414.59,120.86 417.59,120.86 C419.322115,120.819454 421.02058,121.342329 422.43,122.35 C422.56,122.43 422.58,122.52 422.43,122.66 L421.15,124.56 C421.086288,124.656356 420.956716,124.683164 420.86,124.62 C419.892441,123.929984 418.738233,123.549897 417.55,123.53 C416.29,123.53 415.65,124.18 415.65,125.08 C415.65,125.98 416.24,126.42 417.87,126.65 L418.62,126.75 C421.55,127.15 423.1,128.49 423.1,131.06 C423.1,133.63 421.2,135.54 417.51,135.54 C415.528571,135.547177 413.608542,134.852849 412.09,133.58 L412.09,133.58 Z" id="Shape"></path>
            <path d="M437.2,121.27 C437.197095,121.213464 437.218285,121.158345 437.258315,121.118315 C437.298345,121.078285 437.353464,121.057095 437.41,121.06 L440.07,121.06 C440.126536,121.057095 440.181655,121.078285 440.221685,121.118315 C440.261715,121.158345 440.282905,121.213464 440.28,121.27 L440.28,132.43 C440.272499,132.466267 440.283751,132.503874 440.309938,132.530062 C440.336126,132.556249 440.373733,132.567501 440.41,132.56 L446.69,132.56 C446.746536,132.557095 446.801655,132.578285 446.841685,132.618315 C446.881715,132.658345 446.902905,132.713464 446.9,132.77 L446.9,135.09 C446.902905,135.146536 446.881715,135.201655 446.841685,135.241685 C446.801655,135.281715 446.746536,135.302905 446.69,135.3 L437.42,135.3 C437.363464,135.302905 437.308345,135.281715 437.268315,135.241685 C437.228285,135.201655 437.207095,135.146536 437.21,135.09 L437.2,121.27 Z" id="Shape"></path>
            <path d="M452.23,121.27 C452.227095,121.213464 452.248285,121.158345 452.288315,121.118315 C452.328345,121.078285 452.383464,121.057095 452.44,121.06 L455.1,121.06 C455.156536,121.057095 455.211655,121.078285 455.251685,121.118315 C455.291715,121.158345 455.312905,121.213464 455.31,121.27 L455.31,132.43 C455.302499,132.466267 455.313751,132.503874 455.339938,132.530062 C455.366126,132.556249 455.403733,132.567501 455.44,132.56 L461.72,132.56 C461.776536,132.557095 461.831655,132.578285 461.871685,132.618315 C461.911715,132.658345 461.932905,132.713464 461.93,132.77 L461.93,135.09 C461.932905,135.146536 461.911715,135.201655 461.871685,135.241685 C461.831655,135.281715 461.776536,135.302905 461.72,135.3 L452.45,135.3 C452.393464,135.302905 452.338345,135.281715 452.298315,135.241685 C452.258285,135.201655 452.237095,135.146536 452.24,135.09 L452.23,121.27 Z" id="Shape"></path>
            <path d="M466.8,128.18 C466.698396,126.883024 466.833942,125.578388 467.2,124.33 C467.853514,122.113955 469.966202,120.655491 472.27,120.83 C474.447794,120.678873 476.471882,121.958096 477.27,123.99 C477.301623,124.034349 477.308511,124.09174 477.288282,124.142313 C477.268053,124.192886 477.223485,124.229694 477.17,124.24 L474.89,125.24 C474.839273,125.27054 474.777621,125.277034 474.721644,125.257731 C474.665668,125.238429 474.621122,125.195316 474.6,125.14 C474.277734,124.168382 473.363587,123.517154 472.34,123.53 C471.343265,123.475114 470.446857,124.132759 470.2,125.1 C469.892965,127.125095 469.892965,129.184905 470.2,131.21 C470.446857,132.177241 471.343265,132.834886 472.34,132.78 C473.363587,132.792846 474.277734,132.141618 474.6,131.17 C474.621122,131.114684 474.665668,131.071571 474.721644,131.052269 C474.777621,131.032966 474.839273,131.03946 474.89,131.07 L477.17,132.07 C477.223485,132.080306 477.268053,132.117114 477.288282,132.167687 C477.308511,132.21826 477.301623,132.275651 477.27,132.32 C476.471882,134.351904 474.447794,135.631127 472.27,135.48 C469.966202,135.654509 467.853514,134.196045 467.2,131.98 C466.839964,130.74755 466.704475,129.460403 466.8,128.18 L466.8,128.18 Z" id="Shape"></path>
            <path d="M482.63,132.58 C482.627095,132.523464 482.648285,132.468345 482.688315,132.428315 C482.728345,132.388285 482.783464,132.367095 482.84,132.37 L485.33,132.37 C485.386536,132.367095 485.441655,132.388285 485.481685,132.428315 C485.521715,132.468345 485.542905,132.523464 485.54,132.58 L485.54,135.09 C485.542905,135.146536 485.521715,135.201655 485.481685,135.241685 C485.441655,135.281715 485.386536,135.302905 485.33,135.3 L482.84,135.3 C482.783464,135.302905 482.728345,135.281715 482.688315,135.241685 C482.648285,135.201655 482.627095,135.146536 482.63,135.09 L482.63,132.58 Z" id="Shape"></path>
        </g>
    </g>
</svg>