<?xml version="1.0" encoding="iso-8859-1"?>
<!-- Generator: Adobe Illustrator 19.0.0, SVG Export Plug-In . SVG Version: 6.00 Build 0)  -->
<svg version="1.1" id="Capa_1" xmlns="http://www.w3.org/2000/svg" xmlns:xlink="http://www.w3.org/1999/xlink" x="0px" y="0px"
	 viewBox="0 0 511.98 511.98" style="enable-background:new 0 0 511.98 511.98;" xml:space="preserve">
<g>
	<path style="fill:#95A5A5;" d="M66.276,420.244l25.46,25.46c1.688,1.688,3.978,2.637,6.365,2.637c2.387,0,4.677-0.948,6.365-2.637
		l19.095-19.095l-38.19-38.19l-19.095,19.095C62.761,411.029,62.761,416.729,66.276,420.244L66.276,420.244z"/>
	<path style="fill:#F18D46;" d="M301.955,311.866L425.901,187.92l59.64-59.64c4.677-4.71,7.978-10.609,9.548-17.058l15.913-66.833
		c2.896-12.175-0.73-24.981-9.579-33.83c-8.849-8.849-21.655-12.475-33.83-9.579l-66.833,15.913
		c-6.45,1.569-12.348,4.871-17.058,9.548l-59.64,59.64L197.273,212.867L301.955,311.866z"/>
	<g>
		<path style="fill:#BDC3C7;" d="M187.212,426.609l-50.92,50.92c-3.501,3.521-3.501,9.209,0,12.73l19.095,19.095
			c3.521,3.501,9.209,3.501,12.73,0l57.285-57.285l80.772-80.772l151.552-151.552c5.697-5.683,7.927-13.975,5.848-21.748
			c-2.079-7.774-8.151-13.845-15.925-15.925c-7.774-2.079-16.066,0.15-21.748,5.848l-28.643,28.643l-67.342,67.342L187.212,426.609z
			"/>
		<path style="fill:#BDC3C7;" d="M85.371,324.769l-50.92,50.92c-3.521,3.501-9.209,3.501-12.73,0L2.626,356.594
			c-3.501-3.521-3.501-9.209,0-12.73l57.285-57.285l80.772-80.772L292.235,54.254c8.792-8.769,23.024-8.759,31.804,0.021
			s8.789,23.013,0.021,31.804l-28.643,28.643l-67.342,67.342L85.371,324.769z"/>
	</g>
	<path style="fill:#E6E7E8;" d="M411.542,122.242l-21.451,36.37c-1.599,2.544-3.463,4.911-5.561,7.062l-19.068,19.068
		l-38.223-38.223l19.068-19.068c2.151-2.098,4.518-3.962,7.062-5.561l36.37-21.451c6.13-1.549,12.622,0.241,17.093,4.712
		S413.091,116.113,411.542,122.242L411.542,122.242z"/>
	<path style="fill:#D1D4D1;" d="M337.567,271.429c-27.807,38.665-33.986,113.17-35.399,148.392
		c-0.34,12.047-5.046,23.56-13.241,32.397l-0.971,0.971l-5.297,5.208l-6.179,6.268l-2.737,2.737
		c-6.688,5.963-16.644,6.405-23.834,1.059l-85.628-57.115l-63.647-63.647L43.52,262.071c-5.346-7.19-4.903-17.147,1.059-23.834
		l2.737-2.737l6.268-6.179l5.208-5.297l0.971-0.971c8.837-8.195,20.35-12.901,32.397-13.241
		c35.222-1.412,109.727-7.592,148.392-35.398c51.906-37.164,86.51-27.719,86.51-27.719h0.088v-0.088l0.088-0.088l38.223,38.223
		l-0.088,0.088h-0.088C365.285,184.83,374.731,219.522,337.567,271.429z"/>
	
		<rect x="157.81" y="216.782" transform="matrix(-0.7071 0.7071 -0.7071 -0.7071 630.2274 226.5222)" style="fill:#ECF0F1;" width="220.779" height="54.007"/>
	<g>
		<path style="fill:#84B5CB;" d="M142.565,318.303c-3.481,3.413-9.054,3.413-12.535,0L47.316,235.5l6.268-6.179l5.208-5.297
			l0.971-0.971l82.803,82.714C146.008,309.237,146.008,314.834,142.565,318.303L142.565,318.303z"/>
		<path style="fill:#84B5CB;" d="M288.927,452.218l-0.971,0.971l-5.297,5.208l-6.179,6.268l-82.803-82.714
			c-3.462-3.462-3.462-9.074,0-12.535c3.461-3.461,9.074-3.461,12.535,0L288.927,452.218z"/>
	</g>
	<path style="fill:#BDC3C7;" d="M79.006,382.054l50.92,50.92c1.688,1.688,3.978,2.637,6.365,2.637s4.677-0.948,6.365-2.637
		l57.285-57.285c6.752-6.752,10.546-15.911,10.546-25.46s-3.794-18.708-10.546-25.46l-12.73-12.73
		c-6.752-6.752-15.911-10.546-25.46-10.546s-18.708,3.793-25.46,10.546l-57.285,57.285c-1.688,1.688-2.636,3.978-2.636,6.365
		S77.318,380.366,79.006,382.054z"/>
</g>
<g>
</g>
<g>
</g>
<g>
</g>
<g>
</g>
<g>
</g>
<g>
</g>
<g>
</g>
<g>
</g>
<g>
</g>
<g>
</g>
<g>
</g>
<g>
</g>
<g>
</g>
<g>
</g>
<g>
</g>
</svg>
